<svg width="400" height="400" viewBox="0 0 400 400" fill="none" xmlns="http://www.w3.org/2000/svg">
  <!-- Background -->
  <rect width="400" height="400" fill="#F5F5F5"/>
  
  <!-- Two people illustration -->
  <!-- Woman in red -->
  <path d="M80 120C80 120 85 110 95 110C105 110 110 120 110 120L110 180C110 180 105 190 95 190C85 190 80 180 80 180L80 120Z" fill="#D2342C"/>
  <circle cx="95" cy="100" r="15" fill="#8B4513"/>
  <path d="M85 95C85 95 90 90 95 90C100 90 105 95 105 95" fill="#2C2C2C"/>
  <circle cx="92" cy="105" r="2" fill="#FFD700"/>
  
  <!-- Man in yellow -->
  <path d="M290 120C290 120 295 110 305 110C315 110 320 120 320 120L320 180C320 180 315 190 305 190C295 190 290 180 290 180L290 120Z" fill="#F4A261"/>
  <circle cx="305" cy="100" r="15" fill="#8B4513"/>
  <path d="M295 95C295 95 300 90 305 90C310 90 315 95 315 95" fill="#2C2C2C"/>
  
  <!-- Handshake -->
  <path d="M110 150L290 150" stroke="#8B4513" stroke-width="8" stroke-linecap="round"/>
  
  <!-- Speech bubbles -->
  <rect x="60" y="60" width="60" height="30" rx="15" fill="#D2342C"/>
  <rect x="280" y="60" width="60" height="30" rx="15" fill="#2E86AB"/>
  
  <!-- JobSpark text -->
  <text x="200" y="280" text-anchor="middle" font-family="Arial, sans-serif" font-size="48" font-weight="bold">
    <tspan fill="#D2342C">Job</tspan><tspan fill="#2E7D32">Spark</tspan>
  </text>
  
  <!-- Tagline -->
  <text x="200" y="320" text-anchor="middle" font-family="Arial, sans-serif" font-size="18" fill="#F4A261">
    Ignite your interview
  </text>
</svg>